<svg xmlns="http://www.w3.org/2000/svg" width="1200" height="770"><text x="10" y="25" font-size="18" font-weight="bold">Cache Hit Share</text><text x="10" y="61" font-size="11">auth-queue-rationale/memmould-map-zoom</text><rect x="360" y="45" width="542" height="18" fill="#4f46e5"/><text x="912" y="59" font-size="11">70</text><text x="10" y="89" font-size="11">auth-queue-rationale/searchable-transcript</text><rect x="360" y="73" width="650" height="18" fill="#4f46e5"/><text x="1020" y="87" font-size="11">84</text><text x="10" y="117" font-size="11">auth-queue-rationale/subagent-map-zoom</text><rect x="360" y="101" width="0" height="18" fill="#4f46e5"/><text x="370" y="115" font-size="11">0</text><text x="10" y="145" font-size="11">auth-queue-rationale/subagent-searchable-transcript</text><rect x="360" y="129" width="612" height="18" fill="#4f46e5"/><text x="982" y="143" font-size="11">79</text><text x="10" y="173" font-size="11">blame-line-rationale/memmould-blame-lookup</text><rect x="360" y="157" width="712" height="18" fill="#4f46e5"/><text x="1082" y="171" font-size="11">92</text><text x="10" y="201" font-size="11">blame-line-rationale/memmould-map-zoom</text><rect x="360" y="185" width="712" height="18" fill="#4f46e5"/><text x="1082" y="199" font-size="11">92</text><text x="10" y="229" font-size="11">blame-line-rationale/searchable-transcript</text><rect x="360" y="213" width="619" height="18" fill="#4f46e5"/><text x="989" y="227" font-size="11">80</text><text x="10" y="257" font-size="11">blame-line-rationale/subagent-map-zoom</text><rect x="360" y="241" width="658" height="18" fill="#4f46e5"/><text x="1028" y="255" font-size="11">85</text><text x="10" y="285" font-size="11">blame-line-rationale/subagent-searchable-transcript</text><rect x="360" y="269" width="650" height="18" fill="#4f46e5"/><text x="1020" y="283" font-size="11">84</text><text x="10" y="313" font-size="11">correction-chain/memmould-map-zoom</text><rect x="360" y="297" width="712" height="18" fill="#4f46e5"/><text x="1082" y="311" font-size="11">92</text><text x="10" y="341" font-size="11">correction-chain/searchable-transcript</text><rect x="360" y="325" width="542" height="18" fill="#4f46e5"/><text x="912" y="339" font-size="11">70</text><text x="10" y="369" font-size="11">correction-chain/subagent-map-zoom</text><rect x="360" y="353" width="495" height="18" fill="#4f46e5"/><text x="865" y="367" font-size="11">64</text><text x="10" y="397" font-size="11">correction-chain/subagent-searchable-transcript</text><rect x="360" y="381" width="542" height="18" fill="#4f46e5"/><text x="912" y="395" font-size="11">70</text><text x="10" y="425" font-size="11">false-provenance/memmould-map-zoom</text><rect x="360" y="409" width="712" height="18" fill="#4f46e5"/><text x="1082" y="423" font-size="11">92</text><text x="10" y="453" font-size="11">false-provenance/searchable-transcript</text><rect x="360" y="437" width="627" height="18" fill="#4f46e5"/><text x="997" y="451" font-size="11">81</text><text x="10" y="481" font-size="11">false-provenance/subagent-map-zoom</text><rect x="360" y="465" width="635" height="18" fill="#4f46e5"/><text x="1005" y="479" font-size="11">82</text><text x="10" y="509" font-size="11">false-provenance/subagent-searchable-transcript</text><rect x="360" y="493" width="674" height="18" fill="#4f46e5"/><text x="1044" y="507" font-size="11">87</text><text x="10" y="537" font-size="11">multi-agent-synthesis/memmould-map-zoom</text><rect x="360" y="521" width="712" height="18" fill="#4f46e5"/><text x="1082" y="535" font-size="11">92</text><text x="10" y="565" font-size="11">multi-agent-synthesis/searchable-transcript</text><rect x="360" y="549" width="720" height="18" fill="#4f46e5"/><text x="1090" y="563" font-size="11">93</text><text x="10" y="593" font-size="11">multi-agent-synthesis/subagent-map-zoom</text><rect x="360" y="577" width="689" height="18" fill="#4f46e5"/><text x="1059" y="591" font-size="11">89</text><text x="10" y="621" font-size="11">multi-agent-synthesis/subagent-searchable-transcript</text><rect x="360" y="605" width="681" height="18" fill="#4f46e5"/><text x="1051" y="619" font-size="11">88</text><text x="10" y="649" font-size="11">related-reuse/memmould-map-zoom</text><rect x="360" y="633" width="712" height="18" fill="#4f46e5"/><text x="1082" y="647" font-size="11">92</text><text x="10" y="677" font-size="11">related-reuse/searchable-transcript</text><rect x="360" y="661" width="619" height="18" fill="#4f46e5"/><text x="989" y="675" font-size="11">80</text><text x="10" y="705" font-size="11">related-reuse/subagent-map-zoom</text><rect x="360" y="689" width="697" height="18" fill="#4f46e5"/><text x="1067" y="703" font-size="11">90</text><text x="10" y="733" font-size="11">related-reuse/subagent-searchable-transcript</text><rect x="360" y="717" width="650" height="18" fill="#4f46e5"/><text x="1020" y="731" font-size="11">84</text></svg>