<svg xmlns="http://www.w3.org/2000/svg" width="1200" height="770"><text x="10" y="25" font-size="18" font-weight="bold">Input Tokens</text><text x="10" y="61" font-size="11">auth-queue-rationale/memmould-map-zoom</text><rect x="360" y="45" width="370" height="18" fill="#4f46e5"/><text x="740" y="59" font-size="11">12,644</text><text x="10" y="89" font-size="11">auth-queue-rationale/searchable-transcript</text><rect x="360" y="73" width="375" height="18" fill="#4f46e5"/><text x="745" y="87" font-size="11">12,837</text><text x="10" y="117" font-size="11">auth-queue-rationale/subagent-map-zoom</text><rect x="360" y="101" width="0" height="18" fill="#4f46e5"/><text x="370" y="115" font-size="11">0</text><text x="10" y="145" font-size="11">auth-queue-rationale/subagent-searchable-transcript</text><rect x="360" y="129" width="427" height="18" fill="#4f46e5"/><text x="797" y="143" font-size="11">14,610</text><text x="10" y="173" font-size="11">blame-line-rationale/memmould-blame-lookup</text><rect x="360" y="157" width="132" height="18" fill="#4f46e5"/><text x="502" y="171" font-size="11">4,518</text><text x="10" y="201" font-size="11">blame-line-rationale/memmould-map-zoom</text><rect x="360" y="185" width="100" height="18" fill="#4f46e5"/><text x="470" y="199" font-size="11">3,410</text><text x="10" y="229" font-size="11">blame-line-rationale/searchable-transcript</text><rect x="360" y="213" width="308" height="18" fill="#4f46e5"/><text x="678" y="227" font-size="11">10,551</text><text x="10" y="257" font-size="11">blame-line-rationale/subagent-map-zoom</text><rect x="360" y="241" width="427" height="18" fill="#4f46e5"/><text x="797" y="255" font-size="11">14,597</text><text x="10" y="285" font-size="11">blame-line-rationale/subagent-searchable-transcript</text><rect x="360" y="269" width="372" height="18" fill="#4f46e5"/><text x="742" y="283" font-size="11">12,715</text><text x="10" y="313" font-size="11">correction-chain/memmould-map-zoom</text><rect x="360" y="297" width="107" height="18" fill="#4f46e5"/><text x="477" y="311" font-size="11">3,660</text><text x="10" y="341" font-size="11">correction-chain/searchable-transcript</text><rect x="360" y="325" width="720" height="18" fill="#4f46e5"/><text x="1090" y="339" font-size="11">24,635</text><text x="10" y="369" font-size="11">correction-chain/subagent-map-zoom</text><rect x="360" y="353" width="574" height="18" fill="#4f46e5"/><text x="944" y="367" font-size="11">19,648</text><text x="10" y="397" font-size="11">correction-chain/subagent-searchable-transcript</text><rect x="360" y="381" width="607" height="18" fill="#4f46e5"/><text x="977" y="395" font-size="11">20,762</text><text x="10" y="425" font-size="11">false-provenance/memmould-map-zoom</text><rect x="360" y="409" width="106" height="18" fill="#4f46e5"/><text x="476" y="423" font-size="11">3,639</text><text x="10" y="453" font-size="11">false-provenance/searchable-transcript</text><rect x="360" y="437" width="304" height="18" fill="#4f46e5"/><text x="674" y="451" font-size="11">10,389</text><text x="10" y="481" font-size="11">false-provenance/subagent-map-zoom</text><rect x="360" y="465" width="266" height="18" fill="#4f46e5"/><text x="636" y="479" font-size="11">9,103</text><text x="10" y="509" font-size="11">false-provenance/subagent-searchable-transcript</text><rect x="360" y="493" width="263" height="18" fill="#4f46e5"/><text x="633" y="507" font-size="11">9,012</text><text x="10" y="537" font-size="11">multi-agent-synthesis/memmould-map-zoom</text><rect x="360" y="521" width="96" height="18" fill="#4f46e5"/><text x="466" y="535" font-size="11">3,301</text><text x="10" y="565" font-size="11">multi-agent-synthesis/searchable-transcript</text><rect x="360" y="549" width="135" height="18" fill="#4f46e5"/><text x="505" y="563" font-size="11">4,636</text><text x="10" y="593" font-size="11">multi-agent-synthesis/subagent-map-zoom</text><rect x="360" y="577" width="225" height="18" fill="#4f46e5"/><text x="595" y="591" font-size="11">7,685</text><text x="10" y="621" font-size="11">multi-agent-synthesis/subagent-searchable-transcript</text><rect x="360" y="605" width="290" height="18" fill="#4f46e5"/><text x="660" y="619" font-size="11">9,926</text><text x="10" y="649" font-size="11">related-reuse/memmould-map-zoom</text><rect x="360" y="633" width="99" height="18" fill="#4f46e5"/><text x="469" y="647" font-size="11">3,371</text><text x="10" y="677" font-size="11">related-reuse/searchable-transcript</text><rect x="360" y="661" width="397" height="18" fill="#4f46e5"/><text x="767" y="675" font-size="11">13,569</text><text x="10" y="705" font-size="11">related-reuse/subagent-map-zoom</text><rect x="360" y="689" width="202" height="18" fill="#4f46e5"/><text x="572" y="703" font-size="11">6,898</text><text x="10" y="733" font-size="11">related-reuse/subagent-searchable-transcript</text><rect x="360" y="717" width="314" height="18" fill="#4f46e5"/><text x="684" y="731" font-size="11">10,735</text></svg>