<svg xmlns="http://www.w3.org/2000/svg" width="1200" height="870"><text x="10" y="25" font-size="18" font-weight="bold">Parent vs Child Input</text><text x="10" y="64" font-size="11">auth-queue-rationale/memmould-map-zoom</text><rect x="360" y="45" width="169" height="12" fill="#2563eb"/><rect x="360" y="59" width="0" height="12" fill="#16a34a"/><text x="539" y="64" font-size="11">p 12,644 / c 0</text><text x="10" y="96" font-size="11">auth-queue-rationale/searchable-transcript</text><rect x="360" y="77" width="172" height="12" fill="#2563eb"/><rect x="360" y="91" width="0" height="12" fill="#16a34a"/><text x="542" y="96" font-size="11">p 12,837 / c 0</text><text x="10" y="128" font-size="11">auth-queue-rationale/subagent-map-zoom</text><rect x="360" y="109" width="0" height="12" fill="#2563eb"/><rect x="360" y="123" width="0" height="12" fill="#16a34a"/><text x="370" y="128" font-size="11">p 0 / c 0</text><text x="10" y="160" font-size="11">auth-queue-rationale/subagent-searchable-transcript</text><rect x="360" y="141" width="15" height="12" fill="#2563eb"/><rect x="360" y="155" width="181" height="12" fill="#16a34a"/><text x="551" y="160" font-size="11">p 1,116 / c 13,494</text><text x="10" y="192" font-size="11">blame-line-rationale/memmould-blame-lookup</text><rect x="360" y="173" width="61" height="12" fill="#2563eb"/><rect x="360" y="187" width="0" height="12" fill="#16a34a"/><text x="431" y="192" font-size="11">p 4,518 / c 0</text><text x="10" y="224" font-size="11">blame-line-rationale/memmould-map-zoom</text><rect x="360" y="205" width="46" height="12" fill="#2563eb"/><rect x="360" y="219" width="0" height="12" fill="#16a34a"/><text x="416" y="224" font-size="11">p 3,410 / c 0</text><text x="10" y="256" font-size="11">blame-line-rationale/searchable-transcript</text><rect x="360" y="237" width="141" height="12" fill="#2563eb"/><rect x="360" y="251" width="0" height="12" fill="#16a34a"/><text x="511" y="256" font-size="11">p 10,551 / c 0</text><text x="10" y="288" font-size="11">blame-line-rationale/subagent-map-zoom</text><rect x="360" y="269" width="110" height="12" fill="#2563eb"/><rect x="360" y="283" width="86" height="12" fill="#16a34a"/><text x="480" y="288" font-size="11">p 8,182 / c 6,415</text><text x="10" y="320" font-size="11">blame-line-rationale/subagent-searchable-transcript</text><rect x="360" y="301" width="15" height="12" fill="#2563eb"/><rect x="360" y="315" width="155" height="12" fill="#16a34a"/><text x="525" y="320" font-size="11">p 1,147 / c 11,568</text><text x="10" y="352" font-size="11">correction-chain/memmould-map-zoom</text><rect x="360" y="333" width="49" height="12" fill="#2563eb"/><rect x="360" y="347" width="0" height="12" fill="#16a34a"/><text x="419" y="352" font-size="11">p 3,660 / c 0</text><text x="10" y="384" font-size="11">correction-chain/searchable-transcript</text><rect x="360" y="365" width="330" height="12" fill="#2563eb"/><rect x="360" y="379" width="0" height="12" fill="#16a34a"/><text x="700" y="384" font-size="11">p 24,635 / c 0</text><text x="10" y="416" font-size="11">correction-chain/subagent-map-zoom</text><rect x="360" y="397" width="130" height="12" fill="#2563eb"/><rect x="360" y="411" width="133" height="12" fill="#16a34a"/><text x="503" y="416" font-size="11">p 9,731 / c 9,917</text><text x="10" y="448" font-size="11">correction-chain/subagent-searchable-transcript</text><rect x="360" y="429" width="132" height="12" fill="#2563eb"/><rect x="360" y="443" width="147" height="12" fill="#16a34a"/><text x="517" y="448" font-size="11">p 9,820 / c 10,942</text><text x="10" y="480" font-size="11">false-provenance/memmould-map-zoom</text><rect x="360" y="461" width="49" height="12" fill="#2563eb"/><rect x="360" y="475" width="0" height="12" fill="#16a34a"/><text x="419" y="480" font-size="11">p 3,639 / c 0</text><text x="10" y="512" font-size="11">false-provenance/searchable-transcript</text><rect x="360" y="493" width="139" height="12" fill="#2563eb"/><rect x="360" y="507" width="0" height="12" fill="#16a34a"/><text x="509" y="512" font-size="11">p 10,389 / c 0</text><text x="10" y="544" font-size="11">false-provenance/subagent-map-zoom</text><rect x="360" y="525" width="14" height="12" fill="#2563eb"/><rect x="360" y="539" width="108" height="12" fill="#16a34a"/><text x="478" y="544" font-size="11">p 1,056 / c 8,047</text><text x="10" y="576" font-size="11">false-provenance/subagent-searchable-transcript</text><rect x="360" y="557" width="16" height="12" fill="#2563eb"/><rect x="360" y="571" width="105" height="12" fill="#16a34a"/><text x="475" y="576" font-size="11">p 1,207 / c 7,805</text><text x="10" y="608" font-size="11">multi-agent-synthesis/memmould-map-zoom</text><rect x="360" y="589" width="44" height="12" fill="#2563eb"/><rect x="360" y="603" width="0" height="12" fill="#16a34a"/><text x="414" y="608" font-size="11">p 3,301 / c 0</text><text x="10" y="640" font-size="11">multi-agent-synthesis/searchable-transcript</text><rect x="360" y="621" width="62" height="12" fill="#2563eb"/><rect x="360" y="635" width="0" height="12" fill="#16a34a"/><text x="432" y="640" font-size="11">p 4,636 / c 0</text><text x="10" y="672" font-size="11">multi-agent-synthesis/subagent-map-zoom</text><rect x="360" y="653" width="98" height="12" fill="#2563eb"/><rect x="360" y="667" width="5" height="12" fill="#16a34a"/><text x="468" y="672" font-size="11">p 7,324 / c 361</text><text x="10" y="704" font-size="11">multi-agent-synthesis/subagent-searchable-transcript</text><rect x="360" y="685" width="15" height="12" fill="#2563eb"/><rect x="360" y="699" width="118" height="12" fill="#16a34a"/><text x="488" y="704" font-size="11">p 1,134 / c 8,792</text><text x="10" y="736" font-size="11">related-reuse/memmould-map-zoom</text><rect x="360" y="717" width="45" height="12" fill="#2563eb"/><rect x="360" y="731" width="0" height="12" fill="#16a34a"/><text x="415" y="736" font-size="11">p 3,371 / c 0</text><text x="10" y="768" font-size="11">related-reuse/searchable-transcript</text><rect x="360" y="749" width="182" height="12" fill="#2563eb"/><rect x="360" y="763" width="0" height="12" fill="#16a34a"/><text x="552" y="768" font-size="11">p 13,569 / c 0</text><text x="10" y="800" font-size="11">related-reuse/subagent-map-zoom</text><rect x="360" y="781" width="15" height="12" fill="#2563eb"/><rect x="360" y="795" width="78" height="12" fill="#16a34a"/><text x="448" y="800" font-size="11">p 1,087 / c 5,811</text><text x="10" y="832" font-size="11">related-reuse/subagent-searchable-transcript</text><rect x="360" y="813" width="16" height="12" fill="#2563eb"/><rect x="360" y="827" width="128" height="12" fill="#16a34a"/><text x="498" y="832" font-size="11">p 1,199 / c 9,536</text></svg>