<svg xmlns="http://www.w3.org/2000/svg" width="1200" height="406"><text x="10" y="25" font-size="18" font-weight="bold">Cache Hit Share</text><text x="10" y="61" font-size="11">auth-queue-rationale/subagent-map-zoom</text><rect x="360" y="45" width="563" height="18" fill="#4f46e5"/><text x="933" y="59" font-size="11">68</text><text x="10" y="89" font-size="11">auth-queue-rationale/subagent-rlm-transcript-search</text><rect x="360" y="73" width="546" height="18" fill="#4f46e5"/><text x="916" y="87" font-size="11">66</text><text x="10" y="117" font-size="11">blame-line-rationale/subagent-map-zoom</text><rect x="360" y="101" width="554" height="18" fill="#4f46e5"/><text x="924" y="115" font-size="11">67</text><text x="10" y="145" font-size="11">blame-line-rationale/subagent-rlm-transcript-search</text><rect x="360" y="129" width="637" height="18" fill="#4f46e5"/><text x="1007" y="143" font-size="11">77</text><text x="10" y="173" font-size="11">correction-chain/subagent-map-zoom</text><rect x="360" y="157" width="720" height="18" fill="#4f46e5"/><text x="1090" y="171" font-size="11">87</text><text x="10" y="201" font-size="11">correction-chain/subagent-rlm-transcript-search</text><rect x="360" y="185" width="579" height="18" fill="#4f46e5"/><text x="949" y="199" font-size="11">70</text><text x="10" y="229" font-size="11">false-provenance/subagent-map-zoom</text><rect x="360" y="213" width="463" height="18" fill="#4f46e5"/><text x="833" y="227" font-size="11">56</text><text x="10" y="257" font-size="11">false-provenance/subagent-rlm-transcript-search</text><rect x="360" y="241" width="662" height="18" fill="#4f46e5"/><text x="1032" y="255" font-size="11">80</text><text x="10" y="285" font-size="11">multi-agent-synthesis/subagent-map-zoom</text><rect x="360" y="269" width="646" height="18" fill="#4f46e5"/><text x="1016" y="283" font-size="11">78</text><text x="10" y="313" font-size="11">multi-agent-synthesis/subagent-rlm-transcript-search</text><rect x="360" y="297" width="588" height="18" fill="#4f46e5"/><text x="958" y="311" font-size="11">71</text><text x="10" y="341" font-size="11">related-reuse/subagent-map-zoom</text><rect x="360" y="325" width="612" height="18" fill="#4f46e5"/><text x="982" y="339" font-size="11">74</text><text x="10" y="369" font-size="11">related-reuse/subagent-rlm-transcript-search</text><rect x="360" y="353" width="629" height="18" fill="#4f46e5"/><text x="999" y="367" font-size="11">76</text></svg>