<svg xmlns="http://www.w3.org/2000/svg" width="1200" height="770"><text x="10" y="25" font-size="18" font-weight="bold">Input Tokens</text><text x="10" y="61" font-size="11">auth-queue-rationale/memmould-map-zoom</text><rect x="360" y="45" width="120" height="18" fill="#4f46e5"/><text x="490" y="59" font-size="11">3,705</text><text x="10" y="89" font-size="11">auth-queue-rationale/searchable-transcript</text><rect x="360" y="73" width="127" height="18" fill="#4f46e5"/><text x="497" y="87" font-size="11">3,932</text><text x="10" y="117" font-size="11">auth-queue-rationale/subagent-map-zoom</text><rect x="360" y="101" width="241" height="18" fill="#4f46e5"/><text x="611" y="115" font-size="11">7,464</text><text x="10" y="145" font-size="11">auth-queue-rationale/subagent-searchable-transcript</text><rect x="360" y="129" width="408" height="18" fill="#4f46e5"/><text x="778" y="143" font-size="11">12,601</text><text x="10" y="173" font-size="11">blame-line-rationale/memmould-blame-lookup</text><rect x="360" y="157" width="145" height="18" fill="#4f46e5"/><text x="515" y="171" font-size="11">4,470</text><text x="10" y="201" font-size="11">blame-line-rationale/memmould-map-zoom</text><rect x="360" y="185" width="119" height="18" fill="#4f46e5"/><text x="489" y="199" font-size="11">3,680</text><text x="10" y="229" font-size="11">blame-line-rationale/searchable-transcript</text><rect x="360" y="213" width="172" height="18" fill="#4f46e5"/><text x="542" y="227" font-size="11">5,316</text><text x="10" y="257" font-size="11">blame-line-rationale/subagent-map-zoom</text><rect x="360" y="241" width="391" height="18" fill="#4f46e5"/><text x="761" y="255" font-size="11">12,088</text><text x="10" y="285" font-size="11">blame-line-rationale/subagent-searchable-transcript</text><rect x="360" y="269" width="228" height="18" fill="#4f46e5"/><text x="598" y="283" font-size="11">7,041</text><text x="10" y="313" font-size="11">correction-chain/memmould-map-zoom</text><rect x="360" y="297" width="113" height="18" fill="#4f46e5"/><text x="483" y="311" font-size="11">3,487</text><text x="10" y="341" font-size="11">correction-chain/searchable-transcript</text><rect x="360" y="325" width="82" height="18" fill="#4f46e5"/><text x="452" y="339" font-size="11">2,537</text><text x="10" y="369" font-size="11">correction-chain/subagent-map-zoom</text><rect x="360" y="353" width="165" height="18" fill="#4f46e5"/><text x="535" y="367" font-size="11">5,107</text><text x="10" y="397" font-size="11">correction-chain/subagent-searchable-transcript</text><rect x="360" y="381" width="157" height="18" fill="#4f46e5"/><text x="527" y="395" font-size="11">4,851</text><text x="10" y="425" font-size="11">false-provenance/memmould-map-zoom</text><rect x="360" y="409" width="111" height="18" fill="#4f46e5"/><text x="481" y="423" font-size="11">3,436</text><text x="10" y="453" font-size="11">false-provenance/searchable-transcript</text><rect x="360" y="437" width="720" height="18" fill="#4f46e5"/><text x="1090" y="451" font-size="11">22,260</text><text x="10" y="481" font-size="11">false-provenance/subagent-map-zoom</text><rect x="360" y="465" width="382" height="18" fill="#4f46e5"/><text x="752" y="479" font-size="11">11,798</text><text x="10" y="509" font-size="11">false-provenance/subagent-searchable-transcript</text><rect x="360" y="493" width="522" height="18" fill="#4f46e5"/><text x="892" y="507" font-size="11">16,147</text><text x="10" y="537" font-size="11">multi-agent-synthesis/memmould-map-zoom</text><rect x="360" y="521" width="182" height="18" fill="#4f46e5"/><text x="552" y="535" font-size="11">5,629</text><text x="10" y="565" font-size="11">multi-agent-synthesis/searchable-transcript</text><rect x="360" y="549" width="178" height="18" fill="#4f46e5"/><text x="548" y="563" font-size="11">5,513</text><text x="10" y="593" font-size="11">multi-agent-synthesis/subagent-map-zoom</text><rect x="360" y="577" width="237" height="18" fill="#4f46e5"/><text x="607" y="591" font-size="11">7,342</text><text x="10" y="621" font-size="11">multi-agent-synthesis/subagent-searchable-transcript</text><rect x="360" y="605" width="283" height="18" fill="#4f46e5"/><text x="653" y="619" font-size="11">8,755</text><text x="10" y="649" font-size="11">related-reuse/memmould-map-zoom</text><rect x="360" y="633" width="117" height="18" fill="#4f46e5"/><text x="487" y="647" font-size="11">3,627</text><text x="10" y="677" font-size="11">related-reuse/searchable-transcript</text><rect x="360" y="661" width="529" height="18" fill="#4f46e5"/><text x="899" y="675" font-size="11">16,364</text><text x="10" y="705" font-size="11">related-reuse/subagent-map-zoom</text><rect x="360" y="689" width="236" height="18" fill="#4f46e5"/><text x="606" y="703" font-size="11">7,308</text><text x="10" y="733" font-size="11">related-reuse/subagent-searchable-transcript</text><rect x="360" y="717" width="253" height="18" fill="#4f46e5"/><text x="623" y="731" font-size="11">7,824</text></svg>