<svg xmlns="http://www.w3.org/2000/svg" width="1200" height="742"><text x="10" y="25" font-size="18" font-weight="bold">Input Tokens</text><text x="10" y="61" font-size="11">auth-queue-rationale/decant-rlm-hybrid</text><rect x="360" y="45" width="151" height="18" fill="#4f46e5"/><text x="521" y="59" font-size="11">6,133</text><text x="10" y="89" font-size="11">auth-queue-rationale/searchable-transcript</text><rect x="360" y="73" width="720" height="18" fill="#4f46e5"/><text x="1090" y="87" font-size="11">29,298</text><text x="10" y="117" font-size="11">auth-queue-rationale/subagent-decant-rlm-hybrid</text><rect x="360" y="101" width="434" height="18" fill="#4f46e5"/><text x="804" y="115" font-size="11">17,646</text><text x="10" y="145" font-size="11">auth-queue-rationale/subagent-searchable-transcript</text><rect x="360" y="129" width="484" height="18" fill="#4f46e5"/><text x="854" y="143" font-size="11">19,711</text><text x="10" y="173" font-size="11">blame-line-rationale/decant-rlm-hybrid</text><rect x="360" y="157" width="157" height="18" fill="#4f46e5"/><text x="527" y="171" font-size="11">6,380</text><text x="10" y="201" font-size="11">blame-line-rationale/searchable-transcript</text><rect x="360" y="185" width="423" height="18" fill="#4f46e5"/><text x="793" y="199" font-size="11">17,223</text><text x="10" y="229" font-size="11">blame-line-rationale/subagent-decant-rlm-hybrid</text><rect x="360" y="213" width="219" height="18" fill="#4f46e5"/><text x="589" y="227" font-size="11">8,892</text><text x="10" y="257" font-size="11">blame-line-rationale/subagent-searchable-transcript</text><rect x="360" y="241" width="257" height="18" fill="#4f46e5"/><text x="627" y="255" font-size="11">10,462</text><text x="10" y="285" font-size="11">correction-chain/decant-rlm-hybrid</text><rect x="360" y="269" width="166" height="18" fill="#4f46e5"/><text x="536" y="283" font-size="11">6,747</text><text x="10" y="313" font-size="11">correction-chain/searchable-transcript</text><rect x="360" y="297" width="160" height="18" fill="#4f46e5"/><text x="530" y="311" font-size="11">6,501</text><text x="10" y="341" font-size="11">correction-chain/subagent-decant-rlm-hybrid</text><rect x="360" y="325" width="297" height="18" fill="#4f46e5"/><text x="667" y="339" font-size="11">12,082</text><text x="10" y="369" font-size="11">correction-chain/subagent-searchable-transcript</text><rect x="360" y="353" width="220" height="18" fill="#4f46e5"/><text x="590" y="367" font-size="11">8,971</text><text x="10" y="397" font-size="11">false-provenance/decant-rlm-hybrid</text><rect x="360" y="381" width="165" height="18" fill="#4f46e5"/><text x="535" y="395" font-size="11">6,727</text><text x="10" y="425" font-size="11">false-provenance/searchable-transcript</text><rect x="360" y="409" width="278" height="18" fill="#4f46e5"/><text x="648" y="423" font-size="11">11,320</text><text x="10" y="453" font-size="11">false-provenance/subagent-decant-rlm-hybrid</text><rect x="360" y="437" width="297" height="18" fill="#4f46e5"/><text x="667" y="451" font-size="11">12,083</text><text x="10" y="481" font-size="11">false-provenance/subagent-searchable-transcript</text><rect x="360" y="465" width="157" height="18" fill="#4f46e5"/><text x="527" y="479" font-size="11">6,389</text><text x="10" y="509" font-size="11">multi-agent-synthesis/decant-rlm-hybrid</text><rect x="360" y="493" width="167" height="18" fill="#4f46e5"/><text x="537" y="507" font-size="11">6,777</text><text x="10" y="537" font-size="11">multi-agent-synthesis/searchable-transcript</text><rect x="360" y="521" width="270" height="18" fill="#4f46e5"/><text x="640" y="535" font-size="11">10,978</text><text x="10" y="565" font-size="11">multi-agent-synthesis/subagent-decant-rlm-hybrid</text><rect x="360" y="549" width="233" height="18" fill="#4f46e5"/><text x="603" y="563" font-size="11">9,493</text><text x="10" y="593" font-size="11">multi-agent-synthesis/subagent-searchable-transcript</text><rect x="360" y="577" width="398" height="18" fill="#4f46e5"/><text x="768" y="591" font-size="11">16,178</text><text x="10" y="621" font-size="11">related-reuse/decant-rlm-hybrid</text><rect x="360" y="605" width="179" height="18" fill="#4f46e5"/><text x="549" y="619" font-size="11">7,296</text><text x="10" y="649" font-size="11">related-reuse/searchable-transcript</text><rect x="360" y="633" width="347" height="18" fill="#4f46e5"/><text x="717" y="647" font-size="11">14,114</text><text x="10" y="677" font-size="11">related-reuse/subagent-decant-rlm-hybrid</text><rect x="360" y="661" width="325" height="18" fill="#4f46e5"/><text x="695" y="675" font-size="11">13,231</text><text x="10" y="705" font-size="11">related-reuse/subagent-searchable-transcript</text><rect x="360" y="689" width="185" height="18" fill="#4f46e5"/><text x="555" y="703" font-size="11">7,510</text></svg>