<svg xmlns="http://www.w3.org/2000/svg" width="1200" height="406"><text x="10" y="25" font-size="18" font-weight="bold">Cache Hit Share</text><text x="10" y="61" font-size="11">auth-queue-rationale/subagent-map-zoom</text><rect x="360" y="45" width="581" height="18" fill="#4f46e5"/><text x="951" y="59" font-size="11">71</text><text x="10" y="89" font-size="11">auth-queue-rationale/subagent-searchable-transcript</text><rect x="360" y="73" width="695" height="18" fill="#4f46e5"/><text x="1065" y="87" font-size="11">85</text><text x="10" y="117" font-size="11">blame-line-rationale/subagent-map-zoom</text><rect x="360" y="101" width="515" height="18" fill="#4f46e5"/><text x="885" y="115" font-size="11">63</text><text x="10" y="145" font-size="11">blame-line-rationale/subagent-searchable-transcript</text><rect x="360" y="129" width="720" height="18" fill="#4f46e5"/><text x="1090" y="143" font-size="11">88</text><text x="10" y="173" font-size="11">correction-chain/subagent-map-zoom</text><rect x="360" y="157" width="646" height="18" fill="#4f46e5"/><text x="1016" y="171" font-size="11">79</text><text x="10" y="201" font-size="11">correction-chain/subagent-searchable-transcript</text><rect x="360" y="185" width="663" height="18" fill="#4f46e5"/><text x="1033" y="199" font-size="11">81</text><text x="10" y="229" font-size="11">false-provenance/subagent-map-zoom</text><rect x="360" y="213" width="646" height="18" fill="#4f46e5"/><text x="1016" y="227" font-size="11">79</text><text x="10" y="257" font-size="11">false-provenance/subagent-searchable-transcript</text><rect x="360" y="241" width="712" height="18" fill="#4f46e5"/><text x="1082" y="255" font-size="11">87</text><text x="10" y="285" font-size="11">multi-agent-synthesis/subagent-map-zoom</text><rect x="360" y="269" width="622" height="18" fill="#4f46e5"/><text x="992" y="283" font-size="11">76</text><text x="10" y="313" font-size="11">multi-agent-synthesis/subagent-searchable-transcript</text><rect x="360" y="297" width="712" height="18" fill="#4f46e5"/><text x="1082" y="311" font-size="11">87</text><text x="10" y="341" font-size="11">related-reuse/subagent-map-zoom</text><rect x="360" y="325" width="565" height="18" fill="#4f46e5"/><text x="935" y="339" font-size="11">69</text><text x="10" y="369" font-size="11">related-reuse/subagent-searchable-transcript</text><rect x="360" y="353" width="548" height="18" fill="#4f46e5"/><text x="918" y="367" font-size="11">67</text></svg>