<svg xmlns="http://www.w3.org/2000/svg" width="1200" height="770"><text x="10" y="25" font-size="18" font-weight="bold">Input Tokens</text><text x="10" y="61" font-size="11">auth-queue-rationale/memmould-map-zoom</text><rect x="360" y="45" width="155" height="18" fill="#4f46e5"/><text x="525" y="59" font-size="11">3,787</text><text x="10" y="89" font-size="11">auth-queue-rationale/searchable-transcript</text><rect x="360" y="73" width="269" height="18" fill="#4f46e5"/><text x="639" y="87" font-size="11">6,581</text><text x="10" y="117" font-size="11">auth-queue-rationale/subagent-map-zoom</text><rect x="360" y="101" width="285" height="18" fill="#4f46e5"/><text x="655" y="115" font-size="11">6,962</text><text x="10" y="145" font-size="11">auth-queue-rationale/subagent-searchable-transcript</text><rect x="360" y="129" width="443" height="18" fill="#4f46e5"/><text x="813" y="143" font-size="11">10,826</text><text x="10" y="173" font-size="11">blame-line-rationale/memmould-blame-lookup</text><rect x="360" y="157" width="180" height="18" fill="#4f46e5"/><text x="550" y="171" font-size="11">4,410</text><text x="10" y="201" font-size="11">blame-line-rationale/memmould-map-zoom</text><rect x="360" y="185" width="549" height="18" fill="#4f46e5"/><text x="919" y="199" font-size="11">13,424</text><text x="10" y="229" font-size="11">blame-line-rationale/searchable-transcript</text><rect x="360" y="213" width="133" height="18" fill="#4f46e5"/><text x="503" y="227" font-size="11">3,265</text><text x="10" y="257" font-size="11">blame-line-rationale/subagent-map-zoom</text><rect x="360" y="241" width="489" height="18" fill="#4f46e5"/><text x="859" y="255" font-size="11">11,964</text><text x="10" y="285" font-size="11">blame-line-rationale/subagent-searchable-transcript</text><rect x="360" y="269" width="556" height="18" fill="#4f46e5"/><text x="926" y="283" font-size="11">13,601</text><text x="10" y="313" font-size="11">correction-chain/memmould-map-zoom</text><rect x="360" y="297" width="393" height="18" fill="#4f46e5"/><text x="763" y="311" font-size="11">9,619</text><text x="10" y="341" font-size="11">correction-chain/searchable-transcript</text><rect x="360" y="325" width="160" height="18" fill="#4f46e5"/><text x="530" y="339" font-size="11">3,909</text><text x="10" y="369" font-size="11">correction-chain/subagent-map-zoom</text><rect x="360" y="353" width="293" height="18" fill="#4f46e5"/><text x="663" y="367" font-size="11">7,179</text><text x="10" y="397" font-size="11">correction-chain/subagent-searchable-transcript</text><rect x="360" y="381" width="384" height="18" fill="#4f46e5"/><text x="754" y="395" font-size="11">9,401</text><text x="10" y="425" font-size="11">false-provenance/memmould-map-zoom</text><rect x="360" y="409" width="143" height="18" fill="#4f46e5"/><text x="513" y="423" font-size="11">3,504</text><text x="10" y="453" font-size="11">false-provenance/searchable-transcript</text><rect x="360" y="437" width="163" height="18" fill="#4f46e5"/><text x="533" y="451" font-size="11">3,990</text><text x="10" y="481" font-size="11">false-provenance/subagent-map-zoom</text><rect x="360" y="465" width="647" height="18" fill="#4f46e5"/><text x="1017" y="479" font-size="11">15,815</text><text x="10" y="509" font-size="11">false-provenance/subagent-searchable-transcript</text><rect x="360" y="493" width="306" height="18" fill="#4f46e5"/><text x="676" y="507" font-size="11">7,497</text><text x="10" y="537" font-size="11">multi-agent-synthesis/memmould-map-zoom</text><rect x="360" y="521" width="165" height="18" fill="#4f46e5"/><text x="535" y="535" font-size="11">4,038</text><text x="10" y="565" font-size="11">multi-agent-synthesis/searchable-transcript</text><rect x="360" y="549" width="245" height="18" fill="#4f46e5"/><text x="615" y="563" font-size="11">5,984</text><text x="10" y="593" font-size="11">multi-agent-synthesis/subagent-map-zoom</text><rect x="360" y="577" width="464" height="18" fill="#4f46e5"/><text x="834" y="591" font-size="11">11,346</text><text x="10" y="621" font-size="11">multi-agent-synthesis/subagent-searchable-transcript</text><rect x="360" y="605" width="384" height="18" fill="#4f46e5"/><text x="754" y="619" font-size="11">9,391</text><text x="10" y="649" font-size="11">related-reuse/memmould-map-zoom</text><rect x="360" y="633" width="148" height="18" fill="#4f46e5"/><text x="518" y="647" font-size="11">3,610</text><text x="10" y="677" font-size="11">related-reuse/searchable-transcript</text><rect x="360" y="661" width="720" height="18" fill="#4f46e5"/><text x="1090" y="675" font-size="11">17,612</text><text x="10" y="705" font-size="11">related-reuse/subagent-map-zoom</text><rect x="360" y="689" width="187" height="18" fill="#4f46e5"/><text x="557" y="703" font-size="11">4,579</text><text x="10" y="733" font-size="11">related-reuse/subagent-searchable-transcript</text><rect x="360" y="717" width="270" height="18" fill="#4f46e5"/><text x="640" y="731" font-size="11">6,600</text></svg>