<svg xmlns="http://www.w3.org/2000/svg" width="1200" height="870"><text x="10" y="25" font-size="18" font-weight="bold">Parent vs Child Input</text><text x="10" y="64" font-size="11">auth-queue-rationale/memmould-map-zoom</text><rect x="360" y="45" width="71" height="12" fill="#2563eb"/><rect x="360" y="59" width="0" height="12" fill="#16a34a"/><text x="441" y="64" font-size="11">p 3,787 / c 0</text><text x="10" y="96" font-size="11">auth-queue-rationale/searchable-transcript</text><rect x="360" y="77" width="123" height="12" fill="#2563eb"/><rect x="360" y="91" width="0" height="12" fill="#16a34a"/><text x="493" y="96" font-size="11">p 6,581 / c 0</text><text x="10" y="128" font-size="11">auth-queue-rationale/subagent-map-zoom</text><rect x="360" y="109" width="20" height="12" fill="#2563eb"/><rect x="360" y="123" width="110" height="12" fill="#16a34a"/><text x="480" y="128" font-size="11">p 1,084 / c 5,878</text><text x="10" y="160" font-size="11">auth-queue-rationale/subagent-searchable-transcript</text><rect x="360" y="141" width="23" height="12" fill="#2563eb"/><rect x="360" y="155" width="180" height="12" fill="#16a34a"/><text x="550" y="160" font-size="11">p 1,209 / c 9,617</text><text x="10" y="192" font-size="11">blame-line-rationale/memmould-blame-lookup</text><rect x="360" y="173" width="83" height="12" fill="#2563eb"/><rect x="360" y="187" width="0" height="12" fill="#16a34a"/><text x="453" y="192" font-size="11">p 4,410 / c 0</text><text x="10" y="224" font-size="11">blame-line-rationale/memmould-map-zoom</text><rect x="360" y="205" width="252" height="12" fill="#2563eb"/><rect x="360" y="219" width="0" height="12" fill="#16a34a"/><text x="622" y="224" font-size="11">p 13,424 / c 0</text><text x="10" y="256" font-size="11">blame-line-rationale/searchable-transcript</text><rect x="360" y="237" width="61" height="12" fill="#2563eb"/><rect x="360" y="251" width="0" height="12" fill="#16a34a"/><text x="431" y="256" font-size="11">p 3,265 / c 0</text><text x="10" y="288" font-size="11">blame-line-rationale/subagent-map-zoom</text><rect x="360" y="269" width="19" height="12" fill="#2563eb"/><rect x="360" y="283" width="205" height="12" fill="#16a34a"/><text x="575" y="288" font-size="11">p 1,023 / c 10,941</text><text x="10" y="320" font-size="11">blame-line-rationale/subagent-searchable-transcript</text><rect x="360" y="301" width="23" height="12" fill="#2563eb"/><rect x="360" y="315" width="231" height="12" fill="#16a34a"/><text x="601" y="320" font-size="11">p 1,249 / c 12,352</text><text x="10" y="352" font-size="11">correction-chain/memmould-map-zoom</text><rect x="360" y="333" width="180" height="12" fill="#2563eb"/><rect x="360" y="347" width="0" height="12" fill="#16a34a"/><text x="550" y="352" font-size="11">p 9,619 / c 0</text><text x="10" y="384" font-size="11">correction-chain/searchable-transcript</text><rect x="360" y="365" width="73" height="12" fill="#2563eb"/><rect x="360" y="379" width="0" height="12" fill="#16a34a"/><text x="443" y="384" font-size="11">p 3,909 / c 0</text><text x="10" y="416" font-size="11">correction-chain/subagent-map-zoom</text><rect x="360" y="397" width="20" height="12" fill="#2563eb"/><rect x="360" y="411" width="114" height="12" fill="#16a34a"/><text x="484" y="416" font-size="11">p 1,091 / c 6,088</text><text x="10" y="448" font-size="11">correction-chain/subagent-searchable-transcript</text><rect x="360" y="429" width="25" height="12" fill="#2563eb"/><rect x="360" y="443" width="152" height="12" fill="#16a34a"/><text x="522" y="448" font-size="11">p 1,308 / c 8,093</text><text x="10" y="480" font-size="11">false-provenance/memmould-map-zoom</text><rect x="360" y="461" width="66" height="12" fill="#2563eb"/><rect x="360" y="475" width="0" height="12" fill="#16a34a"/><text x="436" y="480" font-size="11">p 3,504 / c 0</text><text x="10" y="512" font-size="11">false-provenance/searchable-transcript</text><rect x="360" y="493" width="75" height="12" fill="#2563eb"/><rect x="360" y="507" width="0" height="12" fill="#16a34a"/><text x="445" y="512" font-size="11">p 3,990 / c 0</text><text x="10" y="544" font-size="11">false-provenance/subagent-map-zoom</text><rect x="360" y="525" width="19" height="12" fill="#2563eb"/><rect x="360" y="539" width="277" height="12" fill="#16a34a"/><text x="647" y="544" font-size="11">p 1,013 / c 14,802</text><text x="10" y="576" font-size="11">false-provenance/subagent-searchable-transcript</text><rect x="360" y="557" width="24" height="12" fill="#2563eb"/><rect x="360" y="571" width="116" height="12" fill="#16a34a"/><text x="486" y="576" font-size="11">p 1,290 / c 6,207</text><text x="10" y="608" font-size="11">multi-agent-synthesis/memmould-map-zoom</text><rect x="360" y="589" width="76" height="12" fill="#2563eb"/><rect x="360" y="603" width="0" height="12" fill="#16a34a"/><text x="446" y="608" font-size="11">p 4,038 / c 0</text><text x="10" y="640" font-size="11">multi-agent-synthesis/searchable-transcript</text><rect x="360" y="621" width="112" height="12" fill="#2563eb"/><rect x="360" y="635" width="0" height="12" fill="#16a34a"/><text x="482" y="640" font-size="11">p 5,984 / c 0</text><text x="10" y="672" font-size="11">multi-agent-synthesis/subagent-map-zoom</text><rect x="360" y="653" width="20" height="12" fill="#2563eb"/><rect x="360" y="667" width="193" height="12" fill="#16a34a"/><text x="563" y="672" font-size="11">p 1,066 / c 10,280</text><text x="10" y="704" font-size="11">multi-agent-synthesis/subagent-searchable-transcript</text><rect x="360" y="685" width="37" height="12" fill="#2563eb"/><rect x="360" y="699" width="139" height="12" fill="#16a34a"/><text x="509" y="704" font-size="11">p 1,957 / c 7,434</text><text x="10" y="736" font-size="11">related-reuse/memmould-map-zoom</text><rect x="360" y="717" width="68" height="12" fill="#2563eb"/><rect x="360" y="731" width="0" height="12" fill="#16a34a"/><text x="438" y="736" font-size="11">p 3,610 / c 0</text><text x="10" y="768" font-size="11">related-reuse/searchable-transcript</text><rect x="360" y="749" width="330" height="12" fill="#2563eb"/><rect x="360" y="763" width="0" height="12" fill="#16a34a"/><text x="700" y="768" font-size="11">p 17,612 / c 0</text><text x="10" y="800" font-size="11">related-reuse/subagent-map-zoom</text><rect x="360" y="781" width="19" height="12" fill="#2563eb"/><rect x="360" y="795" width="67" height="12" fill="#16a34a"/><text x="437" y="800" font-size="11">p 1,026 / c 3,553</text><text x="10" y="832" font-size="11">related-reuse/subagent-searchable-transcript</text><rect x="360" y="813" width="25" height="12" fill="#2563eb"/><rect x="360" y="827" width="98" height="12" fill="#16a34a"/><text x="468" y="832" font-size="11">p 1,346 / c 5,254</text></svg>